HIERARCHY
ROOT Hips
{
	OFFSET 0.00000 0.00000 0.00000
	CHANNELS 6 Xposition Yposition Zposition Zrotation Yrotation Xrotation 
	JOINT LHipJoint
	{
		OFFSET 0 0 0
		CHANNELS 3 Zrotation Yrotation Xrotation
		JOINT LeftHip
		{
			OFFSET 1.28858 -1.83292 1.03970
			CHANNELS 3 Zrotation Yrotation Xrotation
			JOINT LeftKnee
			{
				OFFSET 2.47846 -6.80952 0.00000
				CHANNELS 3 Zrotation Yrotation Xrotation
				JOINT LeftAnkle
				{
					OFFSET 2.75274 -7.56311 0.00000
					CHANNELS 3 Zrotation Yrotation Xrotation
					JOINT LeftToe
					{
						OFFSET 0.12848 -0.35301 1.68223
						CHANNELS 3 Zrotation Yrotation Xrotation
						End Site
						{
							OFFSET 0.00000 -0.00000 0.87311
						}
					}
				}
			}
		}
	}
	JOINT RHipJoint
	{
		OFFSET 0 0 0
		CHANNELS 3 Zrotation Yrotation Xrotation
		JOINT RightHip
		{
			OFFSET -1.31183 -1.83292 1.03970
			CHANNELS 3 Zrotation Yrotation Xrotation
			JOINT RightKnee
			{
				OFFSET -2.44740 -6.72417 0.00000
				CHANNELS 3 Zrotation Yrotation Xrotation
				JOINT RightAnkle
				{
					OFFSET -2.67343 -7.34519 0.00000
					CHANNELS 3 Zrotation Yrotation Xrotation
					JOINT RightToe
					{
						OFFSET -0.16914 -0.46471 1.77626
						CHANNELS 3 Zrotation Yrotation Xrotation
						End Site
						{
							OFFSET -0.00000 -0.00000 0.92777
						}
					}
				}
			}
		}
	}
	JOINT lowerback
	{
		OFFSET 0 0 0
		CHANNELS 3 Zrotation Yrotation Xrotation
		JOINT Chest
		{
			OFFSET 0.01249 2.14252 0.03842
			CHANNELS 3 Zrotation Yrotation Xrotation
			JOINT Chest2
			{
				OFFSET -0.02957 2.14199 -0.03751
				CHANNELS 3 Zrotation Yrotation Xrotation
				JOINT lowerneck
				{
					OFFSET 0 0 0
					CHANNELS 3 Zrotation Yrotation Xrotation
					JOINT Neck
					{
						OFFSET -0.01678 1.65709 -0.05476
						CHANNELS 3 Zrotation Yrotation Xrotation
						JOINT Head
						{
							OFFSET 0.07912 1.58331 -0.11843
							CHANNELS 3 Zrotation Yrotation Xrotation
							End Site
							{
								OFFSET 0.03298 1.73940 -0.04271
							}
						}
					}
				}
				JOINT LeftCollar
				{
					OFFSET 0 0 0
					CHANNELS 3 Zrotation Yrotation Xrotation
					JOINT LeftShoulder
					{
						OFFSET 3.39556 1.16496 0.08673
CHANNELS 3 Zrotation Xrotation Yrotation
						JOINT LeftElbow
						{
OFFSET 0 -5.239100 -0.000000
CHANNELS 3 Zrotation Xrotation Yrotation
							JOINT LeftWrist
							{
OFFSET 0 -3.314670 0.000000
CHANNELS 3 Zrotation Xrotation Yrotation
								JOINT lhand
								{
									OFFSET 0 0 0
CHANNELS 3 Zrotation Xrotation Yrotation
									JOINT LFingers
									{
OFFSET 0 -0.965900 0.000000
CHANNELS 3 Zrotation Xrotation Yrotation
										End Site
										{
OFFSET 0 -0.778730 0.000000
										}
									}
								}
								JOINT LThumb
								{
OFFSET 0 0.000000 0.000000
CHANNELS 3 Zrotation Xrotation Yrotation
									End Site
									{
OFFSET 0 -0.790620 0.790620
									}
								}
							}
						}
					}
				}
				JOINT RightCollar
				{
					OFFSET 0 0 0
					CHANNELS 3 Zrotation Yrotation Xrotation
					JOINT RightShoulder
					{
						OFFSET -3.27193 1.31331 0.33940
CHANNELS 3 Zrotation Xrotation Yrotation
						JOINT RightElbow
						{
OFFSET 0 -5.302520 0.000000
CHANNELS 3 Zrotation Xrotation Yrotation
							JOINT RightWrist
							{
OFFSET 0 -3.678750 0.000000
CHANNELS 3 Zrotation Xrotation Yrotation
								JOINT rhand
								{
									OFFSET 0 0 0
CHANNELS 3 Zrotation Xrotation Yrotation
									JOINT RFingers
									{
OFFSET 0 -0.594810 0.000000
CHANNELS 3 Zrotation Xrotation Yrotation
										End Site
										{
OFFSET 0 -0.479550 0.000000
										}
									}
								}
								JOINT RThumb
								{
OFFSET 0 0.000000 0.000000
CHANNELS 3 Zrotation Xrotation Yrotation
									End Site
									{
OFFSET 0 -0.486870 0.486870
									}
								}
							}
						}
					}
				}
			}
		}
	}
}
MOTION
Frames: 5
Frame Time: 0.008333333333333333
6.154900 18.202500 3.969600 0.720700 0.325800 3.280700 0.000000 0.000000 0.000000 -13.050400 0.448800 3.143700 0.000500 0.145400 0.399600 0.248700 -9.276000 -10.280900 0.174500 -2.690800 -7.419000 0.000000 0.000000 0.000000 18.701200 9.008400 10.482300 -0.030200 1.121400 -3.083000 -0.139700 -16.339300 -24.457700 -0.030500 -1.128300 3.101800 0.410600 1.134700 -7.019800 -1.368600 1.511700 -2.068500 -1.510800 0.753900 1.848100 -4.264000 -2.358300 3.258200 6.966700 -3.386200 2.870500 2.979900 -1.724400 0.549700 0.000000 -0.000000 0.000000 2.240100 -2.768900 -34.518000 11.955100 -19.737300 2.087100 1.212200 -8.414400 14.480000 0.000000 0.000000 0.000000 -7.125000 0.000000 0.000000 -17.729300 15.915100 -12.824700 0.000000 -0.000000 0.000000 1.331100 5.507600 20.467500 -16.155400 -25.730900 -3.713200 -10.714000 8.439100 38.540500 0.000000 0.000000 0.000000 7.125000 0.000000 -0.000000 32.098900 66.327600 -17.262900
6.160990 18.201333 3.969905 0.606560 0.157458 3.282629 0.000000 0.000000 0.000000 -12.901090 0.553145 3.131570 0.000449 0.141086 0.387623 0.236672 -9.484740 -10.211219 0.156280 -2.543012 -7.009082 0.000000 0.000000 0.000000 18.811279 9.101376 10.452154 -0.028982 1.099019 -3.021337 -0.139294 -16.272004 -24.365739 -0.030500 -1.127995 3.101089 0.615787 1.211842 -7.099073 -1.378750 1.600362 -2.036222 -1.626767 0.799069 1.934174 -4.120678 -2.368856 3.309814 6.919552 -3.389448 2.725859 2.938588 -1.726938 0.491387 0.000000 0.000000 0.000000 2.391034 -2.824625 -34.954004 11.915260 -19.677414 2.073702 0.570856 -8.594262 14.621444 0.000000 0.000000 0.000000 -7.125000 0.000000 0.000000 -18.135361 15.799336 -13.201630 0.000000 0.000000 0.000000 1.322168 5.376053 20.998409 -15.892661 -25.373662 -3.600583 -10.578190 8.684330 38.623326 0.000000 0.000000 0.000000 7.125000 0.000000 0.000000 32.359305 66.355462 -17.436266
6.167100 18.200198 3.970314 0.497911 -0.010272 3.284590 0.000000 0.000000 0.000000 -12.759456 0.657201 3.120108 0.000400 0.136733 0.375542 0.224530 -9.688580 -10.137933 0.137918 -2.393121 -6.593377 0.000000 0.000000 0.000000 18.913463 9.189382 10.420271 -0.027767 1.076633 -2.959665 -0.138917 -16.202314 -24.270884 -0.030420 -1.126154 3.096145 0.814953 1.287453 -7.178907 -1.389556 1.687419 -2.004231 -1.740150 0.843424 2.020074 -3.981722 -2.378302 3.359149 6.875296 -3.391557 2.585794 2.899017 -1.728864 0.434992 0.000000 0.000000 0.000000 2.540039 -2.876260 -35.384018 11.877921 -19.621285 2.061145 -0.070777 -8.767850 14.757025 0.000000 0.000000 0.000000 -7.125000 0.000000 0.000000 -18.542039 15.689046 -13.576917 0.000000 0.000000 0.000000 1.311955 5.244094 21.530760 -15.628921 -25.014882 -3.487641 -10.441981 8.930915 38.703366 0.000000 0.000000 0.000000 7.125000 0.000000 0.000000 32.616209 66.380939 -17.605825
6.173850 18.200148 3.974171 0.569217 -0.157958 3.287635 0.000000 0.000000 0.000000 -12.869434 0.751801 3.130512 0.000400 0.131100 0.360063 0.208645 -9.731820 -9.946499 0.114877 -2.174282 -5.987965 0.000000 0.000000 0.000000 18.756845 9.114473 10.331456 -0.026650 1.054099 -2.897698 -0.139475 -16.054171 -24.081175 -0.027731 -1.073931 2.952417 0.816729 1.312879 -7.277111 -1.421833 1.721828 -1.981647 -1.768876 0.861137 2.100261 -3.985833 -2.351353 3.333773 6.925845 -3.356336 2.595742 2.916475 -1.710745 0.441488 0.000000 0.000000 0.000000 2.625809 -2.793840 -35.617676 11.922531 -19.688327 2.076167 -0.721916 -8.735776 14.700437 0.000000 0.000000 0.000000 -7.125000 0.000000 0.000000 -18.968959 15.758170 -13.898375 0.000000 0.000000 0.000000 1.259783 5.098641 22.110390 -15.332381 -24.605573 -3.364062 -10.292722 9.221923 38.692100 0.000000 0.000000 0.000000 7.125000 0.000000 0.000000 32.758363 66.328208 -17.650588
6.180576 18.200061 3.978116 0.644137 -0.304875 3.290392 0.000000 0.000000 0.000000 -12.984767 0.841711 3.144333 0.000394 0.124628 0.342288 0.191657 -9.761880 -9.732371 0.090787 -1.887205 -5.194993 0.000000 0.000000 0.000000 18.596281 9.040379 10.243816 -0.025546 1.031767 -2.836284 -0.140310 -15.906587 -23.894800 -0.025008 -1.020572 2.805568 0.814857 1.338318 -7.375711 -1.455563 1.756580 -1.959081 -1.796997 0.879005 2.180604 -3.988955 -2.325411 3.310285 6.975954 -3.322368 2.603688 2.933639 -1.693297 0.447068 0.000000 0.000000 0.000000 2.711714 -2.708956 -35.843303 11.966763 -19.754796 2.091066 -1.374139 -8.693995 14.644366 0.000000 0.000000 0.000000 -7.125000 0.000000 0.000000 -19.396404 15.826590 -14.220780 0.000000 0.000000 0.000000 1.209648 4.952560 22.682090 -15.035559 -24.195486 -3.240600 -10.141870 9.519956 38.677606 0.000000 0.000000 0.000000 7.125000 0.000000 0.000000 32.897650 66.272410 -17.691348
